<?xml version="1.0" encoding="utf-8"?>
<!-- Generator: Adobe Illustrator 24.2.2, SVG Export Plug-In . SVG Version: 6.00 Build 0)  -->
<svg version="1.1" id="Layer_1" xmlns="http://www.w3.org/2000/svg" xmlns:xlink="http://www.w3.org/1999/xlink" x="0px" y="0px"
	 viewBox="0 0 666.9 306.6" style="enable-background:new 0 0 666.9 306.6;" xml:space="preserve">
<style type="text/css">
	.st0{enable-background:new    ;}
	.st1{fill:#82916B;}
	.st2{fill:#E5952E;}
</style>
<g class="st0">
	<path class="st1" d="M124.5,213.2c2.6,3.2,5.1,6.4,7.5,9.4c2.4,3.1,4.9,6.3,7.5,9.5c-5.2,4-10.9,7.2-17.2,9.5
		c-6.3,2.3-13,3.5-20.2,3.5c-8.4,0-16.3-1.6-23.5-4.7c-7.3-3.1-13.6-7.3-19-12.8c-5.4-5.4-9.7-11.6-12.8-18.8
		c-3.1-7.1-4.7-14.7-4.7-23c0-8,1.5-15.6,4.7-22.8c3.1-7.2,7.3-13.4,12.8-18.8c5.4-5.3,11.7-9.5,19-12.6c7.3-3.1,15.1-4.7,23.5-4.7
		c7.4,0,14.3,1.2,20.7,3.5c6.4,2.3,12.2,5.5,17.4,9.5c-2.6,3.2-5.2,6.3-7.8,9.3c-2.6,3-5.2,6.1-7.8,9.3c-6.4-4.8-13.9-7.2-22.5-7.2
		c-10.4,0-18.9,3.3-25.3,9.8c-6.5,6.5-9.8,14.8-9.8,24.8c0,9.8,3.2,18.1,9.8,24.8c6.5,6.7,14.9,10.1,25.3,10.1
		C110.8,220.7,118.3,218.2,124.5,213.2z"/>
	<path class="st1" d="M192,242.3h-24.9v-225H192V242.3z"/>
</g>
<g class="st0">
	<g>
		<path class="st1" d="M431.4,249.2c-10.8-20-21.6-39.9-32.4-59.7c-10.8-19.8-21.6-39.7-32.4-59.7h24.9c3.2,6,6.7,12.2,10.5,18.6
			c3.8,6.4,7.5,12.8,11.2,19.2c3.7,6.4,7.1,12.9,10.2,19.4c3.1,6.5,5.7,13,8,19.3c2-6.4,4.6-12.8,7.8-19.3
			c3.2-6.5,6.6-12.9,10.4-19.4c3.7-6.4,7.4-12.8,11.1-19.2c3.7-6.4,7.2-12.6,10.7-18.6h24.9c-10.8,20-21.6,39.9-32.4,59.7
			S442.2,229.2,431.4,249.2z"/>
	</g>
	<g>
		<path class="st1" d="M624,176.9c-13.6,5-27.1,10-40.6,15c-13.5,5-27.1,10-40.7,15c3,4.2,6.9,7.6,11.9,10.1
			c4.9,2.5,10.4,3.8,16.6,3.8c9.2,0,16.8-3.2,22.8-9.6l15.3,18c-5,5-10.7,8.9-17.1,11.7c-6.4,2.8-13.4,4.2-21,4.2
			c-8.4,0-16.3-1.6-23.5-4.7c-7.3-3.1-13.7-7.3-19-12.8c-5.4-5.4-9.7-11.6-12.8-18.8c-3.1-7.1-4.7-14.7-4.7-23
			c0-8,1.5-15.6,4.7-22.8c3.1-7.2,7.3-13.4,12.8-18.8c5.4-5.3,11.7-9.5,19-12.6c7.3-3.1,15.2-4.7,23.5-4.7c6.2,0,12.2,1.3,17.9,3.8
			c5.7,2.5,10.8,6,15.3,10.4c4.5,4.4,8.4,9.7,11.8,15.8C619.6,163,622.2,169.7,624,176.9z M571.2,151.4c-8,0-14.9,2-20.7,6
			c-5.8,4-9.9,9.2-12.3,15.6c-1,3-1.7,6.5-2.1,10.5c9.4-3.4,18.8-6.8,28-10.4c9.3-3.5,18.6-6.9,28-10.3c-2.8-3.4-6-6.2-9.5-8.2
			C579.3,152.4,575.4,151.4,571.2,151.4z"/>
	</g>
</g>
<g id="clove">
	<g>
		<path class="st2" d="M286.5,142.1c1.4,14.6-5.6,25.8-19.7,16c-9.3-6.4-23-8.5-30-18c-7.9-18.7,41.7-42.1,47.4-17.6
			C285.5,128.3,286,137.2,286.5,142.1z M263.3,139.5c4.4,0.6,8.2-4.6,4.4-7.4C260.7,127.7,252.9,138.4,263.3,139.5L263.3,139.5z"/>
	</g>
	<g>
		<path class="st2" d="M282.1,218.8c-0.1-0.9-0.1-1.9,0-2.8c1-7,7.3-12.9,13.2-15.8c8.9-4.2,23.4,22.6,30.1,32
			c1.2,1.6,1.8,3.5,1.9,5.5c0.4,10-14.3,14.8-23,15.1c-6.9,0.2-16.8,0.1-18.2-8.5C284.9,235.7,283.2,227.2,282.1,218.8z
			 M301.5,224.8h-0.6c-6.7-0.3-5.8,8.8-1,11.3C309.1,240.7,310.9,224.7,301.5,224.8z"/>
	</g>
	<g>
		<path class="st2" d="M364.2,173.8c1,33.8-18.8,19.5-41.2,14.6c-12.7-2.8-3.7-27,6-29.2C348.6,152.5,363.4,146.8,364.2,173.8z
			 M342.1,178.5c8.7-0.3,2.7-12.1-3.4-8.2C334.1,172.7,338.2,178.6,342.1,178.5L342.1,178.5z"/>
	</g>
	<g>
		<path class="st2" d="M219.7,216.9c1.6-10.1,12.4-15.1,21.1-18.9c0,0,0,0,0.1,0c7.2-4.1,15.3,0,22,3.1h0.1c8.7,5,0,13.9-4.9,19.4
			c-13.7,15.4-31.9,19.4-38.4-3.3C219.7,217.1,219.7,217,219.7,216.9z M252.7,208.5c0-2.5-4.8-2.9-6.4-1.4c-2.1,1.8-5.4,3-5.1,6.2
			C243.6,220.2,252.6,213.4,252.7,208.5L252.7,208.5z"/>
	</g>
	<g>
		<path class="st2" d="M355.7,210.8c0.4,14.7-18,26.5-28.6,14c-7-8.8-29.1-37.4-2.7-32.8C333.8,194.4,355.3,199,355.7,210.8z
			 M334.4,205.7c-8.8,0.2-0.9,13.5,4.2,9.3C341,211.8,337.9,206.2,334.4,205.7L334.4,205.7z"/>
	</g>
	<g>
		<path class="st2" d="M207.8,188.3c-0.4-17.1,9.5-26.1,27.1-13.3c4.8,3.5,15.6,9.3,9,17.4c-6.9,6.1-15.6,9.9-23.6,14.3
			C211,210.3,207,195.9,207.8,188.3z M230.4,185.7c-1-8-9.3-3.9-7.3,2.5C224.4,192.1,230.4,189.2,230.4,185.7z"/>
	</g>
	<g>
		<path class="st2" d="M315.2,138.6c0.4-33,51.1,0.8,29,11.5c-6.8,3.3-19,11.7-24.5,2.7C317,148.4,315.1,144.4,315.2,138.6z
			 M330.2,143.1c5.1-1,2.3-7.7-2.1-6.8C323,137,326,143.6,330.2,143.1L330.2,143.1z"/>
	</g>
	<g>
		<path class="st2" d="M236.6,149.1c7.5-0.3,35.5,13.1,31.9,18.4c-3.1,4.6-13.6,10.3-18.9,11C236.6,180.6,214.2,149.9,236.6,149.1z
			 M248.3,165.8c5.3-1.3-0.1-6.3-3.4-5.8c-2-0.1-3.4,2.4-1.6,3.7C244.7,165.1,246.5,165.8,248.3,165.8L248.3,165.8z"/>
	</g>
	<g>
		<path class="st2" d="M288.3,138.1c-4.5-33.6,30-33.1,23.2-0.8c-1.5,7.1-8.4,9.9-14,13.2C286.9,157,289.3,145,288.3,138.1z
			 M298,130.6c0.8,9.3,6.7,0.9,4.4-3.2C299.9,124.4,297.9,127.7,298,130.6L298,130.6z"/>
	</g>
	<g>
		<path class="st2" d="M279.4,233.8c0.9,23.9-11.4,23.6-27,10.1c-6.2-9,10.7-21.9,17-27.2C278.5,213.1,279.3,228.1,279.4,233.8z
			 M262.3,237.7c-0.5,4,3.6,3.1,5.6,1.2c2.4-2.5,0-9.2-3.8-5.9C262.9,234.2,262.2,235.9,262.3,237.7z"/>
	</g>
	<g>
		<path class="st2" d="M296.9,176.8c-41.2-0.8,8.5-41.8,18.1-18.9C317.5,170.5,308.9,177,296.9,176.8z M300.7,162.7
			c-2-0.5-3.6,1.6-4,3.2C300.2,172.2,307.1,162.4,300.7,162.7z"/>
	</g>
	<g>
		<path class="st2" d="M280.6,178.9c0.2,5.4-8.5,18.1-14.7,18.1s-20.9-8.9-12-14.2C259.6,179.4,280,165.4,280.6,178.9z M270.9,183.7
			c-1.3-3.3-7.4-0.4-7.9,2.3C263.2,189.5,271.1,188,270.9,183.7L270.9,183.7z"/>
	</g>
	<g>
		<path class="st2" d="M271.3,203.3c0.5-5.9,5.1-11.7,9.6-15.4c8.6-7,11.6,8.8,6.5,14.1C283.6,206,271.8,213.1,271.3,203.3z
			 M283.6,195.8c-0.9-4-6.6,3.3-6.9,5.2C277.6,205.4,284.4,198.7,283.6,195.8z"/>
	</g>
	<g>
		<path class="st2" d="M303.5,178.9c13.9-0.7,8.1,13.7-0.7,14.2C292.6,192.9,284.3,179.9,303.5,178.9z M303.4,184.2
			c-1.8-0.1-4.4,1.1-3.5,3.2C301.8,191.1,309.2,184.6,303.4,184.2z"/>
	</g>
</g>
</svg>
